<svg width="18" height="18" viewBox="0 0 18 18" fill="none" xmlns="http://www.w3.org/2000/svg">
<path d="M14.1232 0H3.87682C1.73571 0 0 1.73571 0 3.87682V14.1232C0 16.2643 1.73571 18 3.87682 18H14.1232C16.2643 18 18 16.2643 18 14.1232V3.87682C18 1.73571 16.2643 0 14.1232 0Z" fill="#424344"/>
<path d="M4.38773 1.17682C4.252 1.177 4.1219 1.23087 4.02602 1.32658C3.93013 1.4223 3.8763 1.55203 3.87636 1.68727C3.87649 1.82255 3.93052 1.95225 4.02658 2.04785C4.12264 2.14344 4.25287 2.19711 4.38864 2.19705C4.5244 2.19699 4.65458 2.1432 4.75056 2.04752C4.84654 1.95184 4.90046 1.8221 4.90046 1.68682V1.68591C4.90021 1.55063 4.84607 1.42098 4.74992 1.32547C4.65377 1.22996 4.52349 1.17664 4.38773 1.17682ZM13.5473 1.17682C13.4115 1.177 13.2815 1.23087 13.1856 1.32658C13.0897 1.4223 13.0358 1.55203 13.0359 1.68727C13.036 1.82259 13.0901 1.95232 13.1862 2.04793C13.2823 2.14353 13.4126 2.19717 13.5484 2.19705C13.6842 2.19699 13.8144 2.1432 13.9103 2.04752C14.0063 1.95184 14.0602 1.8221 14.0602 1.68682V1.68591C14.06 1.55059 14.0058 1.42091 13.9096 1.32539C13.8134 1.22988 13.6831 1.17658 13.5473 1.17682Z" fill="#424344"/>
<path d="M4.3675 1.61659C4.18955 1.62614 4.19841 1.88477 4.19841 1.88477C5.155 3.7475 6.91591 4.66091 8.94682 4.66114C10.975 4.65818 12.7534 3.73455 13.7086 1.87455C13.7086 1.87455 13.7464 1.52432 13.3736 1.64568C12.3941 3.26932 10.7486 4.22977 8.94796 4.23273C7.14409 4.23318 5.50432 3.28273 4.52295 1.65614C4.45932 1.62545 4.40864 1.61432 4.3675 1.61659ZM10.8402 8.85614L10.2961 10.4766L9.76659 8.85727H9.24955L10.0841 11.2132H10.4866L11.032 9.66568L11.5766 11.2132H11.9825L12.8155 8.8575H12.3114L11.7807 10.4768L11.2366 8.85636L10.8402 8.85614ZM7.95023 8.85682L6.89455 11.2116H7.39068L7.59455 10.7557L7.60909 10.7214H8.70591L8.92091 11.2116H9.43068L8.38455 8.87068L8.37546 8.85682H7.95023ZM15.5961 8.85682V11.2102H16.0759V8.85705L15.5961 8.85682ZM1.83955 8.85727V11.2139H2.32591V10.2568H3.42364V11.2136H3.91023V8.8575H3.42386V9.80818H2.32614V8.8575L1.83955 8.85727ZM6.16091 8.85796V10.2068C6.16091 10.5898 5.96773 10.7943 5.61614 10.7943C5.26296 10.7943 5.06841 10.5841 5.06841 10.1905V8.85932H4.58182V10.2068C4.58182 10.8698 4.95682 11.2498 5.60977 11.2498C6.26886 11.2498 6.64682 10.8625 6.64682 10.1873V8.85773L6.16091 8.85796ZM13.2077 8.85886V11.212H15.0175V10.783H13.6873V10.1995H14.5716V9.77H13.6873V9.28818H14.9714V8.85909L13.2077 8.85886ZM8.15614 9.45296L8.50296 10.242L8.52659 10.2964H7.79091L7.81409 10.242L8.15614 9.45296Z" fill="white"/>
</svg>
