<svg width="20" height="21" viewBox="0 0 20 21" fill="none" xmlns="http://www.w3.org/2000/svg">
<path fill-rule="evenodd" clip-rule="evenodd" d="M12.3864 2.87889C13.0419 2.10092 13.3708 1.2604 13.3708 0.360192V0.360181C13.3708 0.240784 13.3652 0.120432 13.3519 9.15527e-05C12.8952 0.0237797 12.4097 0.162131 11.8964 0.412301C11.3819 0.66626 10.9577 0.984617 10.6242 1.36749C9.95609 2.12369 9.57988 3.04855 9.57988 3.91275C9.57988 4.03219 9.58755 4.14585 9.60077 4.25385C10.6384 4.33818 11.5953 3.80375 12.3864 2.87889ZM15.8762 15.7675C16.2496 15.2353 16.5718 14.6564 16.844 14.0276C16.9562 13.7609 17.0618 13.4831 17.1618 13.1931C16.7007 12.9998 16.2862 12.7276 15.9151 12.3754C15.0963 11.6165 14.6796 10.6608 14.6674 9.51225C14.6541 8.03774 15.324 6.88833 16.6784 6.06769C15.9218 4.99216 14.7841 4.39518 13.2697 4.27296C12.7108 4.22552 12.0286 4.34596 11.2203 4.63684C10.3655 4.9505 9.86132 5.10783 9.71254 5.10783C9.51355 5.10783 9.05968 4.97327 8.35281 4.70795C7.64394 4.44351 7.07351 4.30896 6.63853 4.30896C5.84355 4.32218 5.10535 4.52884 4.42215 4.93439C3.73895 5.33993 3.19308 5.89236 2.78275 6.59267C2.26066 7.46453 2 8.50495 2 9.71124C2 10.7643 2.19333 11.8521 2.57898 12.9754C2.93908 14.0153 3.39874 14.9275 3.95783 15.7142C4.47892 16.4508 4.91391 16.9708 5.26168 17.2741C5.80655 17.7808 6.35242 18.0219 6.90007 17.9985C7.26017 17.9863 7.73116 17.863 8.31581 17.6263C8.89957 17.3908 9.44533 17.2741 9.9542 17.2741C10.4394 17.2741 10.9701 17.3908 11.5475 17.6263C12.123 17.863 12.6175 17.9797 13.0274 17.9797C13.5985 17.9663 14.1319 17.7319 14.6296 17.2741C14.9507 16.9952 15.3674 16.493 15.8762 15.7675Z" fill="white"/>
</svg>
