<svg width="31" height="40" viewBox="0 0 31 40" fill="none" xmlns="http://www.w3.org/2000/svg">
<path d="M24.3 9C23 9 22 8 22 6.7V0H2C0.9 0 0 0.9 0 2V38C0 39.1 0.9 40 2 40H29C30.1 40 31 39.1 31 38V9H24.3Z" fill="#1A66CC"/>
<path d="M31 8H25C23.9 8 23 7.1 23 6V0L31 8Z" fill="#1A66CC"/>
<path d="M7.56843 28.194C7.56843 29.1374 6.98543 29.8264 6.15863 29.8264C5.33183 29.8264 4.74883 29.1374 4.74883 28.194C4.74883 27.2718 5.33183 26.5828 6.15863 26.5828C6.98543 26.5828 7.56843 27.2718 7.56843 28.194ZM7.51543 30.155V30.8652H8.79803V23H7.51543V26.2542H7.49423C7.19743 25.8408 6.61443 25.438 5.87243 25.438C4.47323 25.438 3.42383 26.5828 3.42383 28.2046C3.42383 29.8264 4.47323 30.9712 5.87243 30.9712C6.61443 30.9712 7.19743 30.5684 7.49423 30.155H7.51543Z" fill="white"/>
<path d="M12.5855 30.9924C14.1119 30.9924 15.2567 29.837 15.2567 28.2152C15.2567 26.5934 14.1119 25.438 12.5855 25.438C11.0591 25.438 9.91426 26.5934 9.91426 28.2152C9.91426 29.837 11.0591 30.9924 12.5855 30.9924ZM12.5855 29.8476C11.7693 29.8476 11.2287 29.148 11.2287 28.2152C11.2287 27.2718 11.7693 26.5828 12.5855 26.5828C13.4017 26.5828 13.9423 27.2718 13.9423 28.2152C13.9423 29.148 13.4017 29.8476 12.5855 29.8476Z" fill="white"/>
<path d="M18.7227 30.9924C19.4647 30.9924 20.1537 30.7486 20.6519 30.2504L19.8463 29.4448C19.6025 29.6886 19.2421 29.8582 18.7757 29.8582C17.9595 29.8582 17.4189 29.1586 17.4189 28.2152C17.4189 27.2718 17.9595 26.5722 18.7757 26.5722C19.2421 26.5722 19.6025 26.7418 19.8463 26.9856L20.6519 26.18C20.1537 25.6818 19.4647 25.438 18.7227 25.438C17.1963 25.438 16.1045 26.5934 16.1045 28.2152C16.1045 29.837 17.1963 30.9924 18.7227 30.9924Z" fill="white"/>
<path d="M21.0562 30.8652H22.4766L23.6956 29.0526H23.7168L24.9358 30.8652H26.4198L24.4906 28.1092L26.2184 25.5652H24.8192L23.8016 27.1658H23.7804L22.7204 25.5652H21.2364L23.0172 28.1304L21.0562 30.8652Z" fill="white"/>
</svg>
