<svg width="20" height="20" viewBox="0 0 20 20" fill="none" xmlns="http://www.w3.org/2000/svg">
<g opacity="0.7">
<path fill-rule="evenodd" clip-rule="evenodd" d="M2.84019 1.10979C2.66555 1.01312 2.49126 0.980876 2.34711 1.01094H2.34704L11.703 9.97359L14.3265 7.47332L10.4195 5.30912L2.84019 1.10979ZM2 1.50515C2 1.45921 2.00372 1.41629 2.01082 1.37652H2.01089L11.3433 10.3166L2.23176 19.0001C2.09006 18.9497 2 18.8118 2 18.6119V1.50515ZM13.8619 12.7295L11.9251 13.802L10.4195 14.6358L3.36236 18.5462L11.6921 10.6509L13.862 12.7295H13.8619ZM14.3483 12.4602L14.3169 12.4776L12.0529 10.3088L14.7786 7.72531C15.7114 8.24516 17.8601 9.44123 18.152 9.59178C18.5256 9.7856 18.5683 10.1222 18.1254 10.3678C17.6819 10.6127 14.3483 12.4602 14.3483 12.4602Z" fill="black"/>
</g>
</svg>
