<svg width="180" height="112" viewBox="0 0 180 112" fill="none" xmlns="http://www.w3.org/2000/svg">
<g id="Group 296">
<path id="Vector 1" d="M92.1322 4.44214H113.455L128.206 35.7149M148.992 79.781L128.206 35.7149M128.206 35.7149H69.3884M128.206 35.7149L93.5537 78.3595M69.3884 35.7149L93.5537 78.3595M69.3884 35.7149L35.2727 78.3595H93.5537M69.3884 35.7149L60.8595 22.2107" stroke="white" stroke-width="7.10744" stroke-linejoin="round"/>
<path id="Ellipse 1" d="M127.669 58.7673C122.406 63.9271 119.141 71.1173 119.141 79.0703C119.141 94.7716 131.869 107.5 147.57 107.5C163.272 107.5 176 94.7716 176 79.0703C176 63.3689 163.272 50.6405 147.57 50.6405C143.527 50.6405 139.681 51.4846 136.198 53.0061" stroke="white" stroke-width="7.10744"/>
<path id="Ellipse 2" d="M42.1562 50.6405C39.3173 49.7177 36.2871 49.219 33.1405 49.219C17.0466 49.219 4 62.2656 4 78.3595C4 94.4533 17.0466 107.5 33.1405 107.5C49.2343 107.5 62.281 94.4533 62.281 78.3595C62.281 69.559 58.3798 61.6696 52.2125 56.3264" stroke="white" stroke-width="7.10744"/>
<path id="Vector 2" d="M81.4711 26.4752C83.4337 26.4752 85.0248 24.8842 85.0248 22.9215C85.0248 20.9588 83.4337 19.3678 81.4711 19.3678V26.4752ZM52.3306 26.4752H81.4711V19.3678H52.3306V26.4752Z" fill="white"/>
<path id="Vector 3" d="M145.774 81.2893C146.607 83.0664 148.723 83.8318 150.5 82.9987C152.277 82.1657 153.043 80.0498 152.209 78.2727L145.774 81.2893ZM124.452 35.8017L145.774 81.2893L152.209 78.2727L130.887 32.7851L124.452 35.8017Z" fill="white"/>
</g>
</svg>
