<svg width="66" height="80" viewBox="0 0 66 80" fill="none" xmlns="http://www.w3.org/2000/svg">
<path fill-rule="evenodd" clip-rule="evenodd" d="M32.9344 80.0001L29.139 76.1823L52.4367 52.7479C57.4334 47.7252 60.529 40.7869 60.529 33.1345C60.529 17.8365 48.1533 5.38478 32.9412 5.38478C17.729 5.38478 5.35336 17.8365 5.35336 33.1345C5.35336 40.77 8.44559 47.7185 13.3985 52.6971C13.8965 53.2014 14.2162 53.8918 14.2162 54.6466C14.2162 56.129 13.0183 57.3373 11.5412 57.3373C10.7908 57.3373 10.1246 57.0394 9.6199 56.5318C3.69116 50.5682 0 42.2694 0 33.1345C0 14.8344 14.7478 0 32.9412 0C51.1345 0 65.8824 14.8344 65.8824 33.1345C65.8824 42.2795 62.2013 50.5547 56.249 56.5521L32.9344 80.0001ZM39.8252 18.5642L48.254 39.9916H50.7271V43.2205H37.9981V39.9916H39.906L38.0486 34.6508L32.7255 43.4641L27.4024 34.6508L25.5485 39.9916H27.4529V43.2205H14.7273V39.9916H17.1971L25.6258 18.5642L32.7255 31.0802L39.8252 18.5642Z" fill="#DA2032"/>
</svg>
