<svg width="66" height="80" viewBox="0 0 66 80" fill="none" xmlns="http://www.w3.org/2000/svg">
<path fill-rule="evenodd" clip-rule="evenodd" d="M29.1408 76.1799L32.9349 79.9997L56.2515 56.5493C62.2005 50.5553 65.8829 42.2781 65.8829 33.1352C65.8829 14.8329 51.1368 0 32.9382 0C14.7494 0 0 14.8329 0 33.1352C0 42.2715 3.689 50.5686 9.62161 56.5328C10.1275 57.0383 10.7943 57.3357 11.5433 57.3357C13.0182 57.3357 14.2173 56.1296 14.2173 54.646C14.2173 53.8893 13.8953 53.1987 13.3993 52.6965C8.4456 47.717 5.35775 40.7714 5.35775 33.1352C5.35775 17.8365 17.7289 5.38596 32.9382 5.38596C48.1508 5.38596 60.5285 17.8365 60.5285 33.1352C60.5285 40.7879 57.434 47.7236 52.4343 52.7494L29.1408 76.1799ZM44.8943 31.2495C44.5658 32.2771 44.0336 33.1858 43.3109 33.9755C42.585 34.7652 41.6455 35.4029 40.4924 35.8854C39.3361 36.3678 37.9368 36.609 36.291 36.609H30.2106V46.0989H24.4225V19.6283H36.291C37.9368 19.6283 39.3361 19.8696 40.4924 20.352C41.6455 20.8344 42.585 21.4721 43.3109 22.2618C44.0336 23.0516 44.5658 23.9536 44.8943 24.968C45.2293 25.9825 45.3936 27.0332 45.3936 28.1203C45.3936 29.181 45.2293 30.2251 44.8943 31.2495ZM32.9412 11.2682C21.0858 11.2682 11.4741 20.9365 11.4741 32.8616C11.4741 44.7901 21.0858 54.4583 32.9412 54.4583C44.7999 54.4583 54.4116 44.7901 54.4116 32.8616C54.4116 20.9365 44.7999 11.2682 32.9412 11.2682ZM36.6238 24.3004C37.2348 24.3995 37.7768 24.5911 38.2433 24.8753C38.7098 25.1595 39.0843 25.5626 39.3668 26.0781C39.6493 26.5968 39.7905 27.2775 39.7905 28.1201C39.7905 28.9594 39.6493 29.6368 39.3668 30.1588C39.0843 30.6776 38.7098 31.0807 38.2433 31.3616C37.7768 31.6458 37.2348 31.8374 36.6238 31.9365C36.0063 32.0357 35.369 32.0852 34.7054 32.0852H30.2083V24.1517H34.7054C35.369 24.1517 36.0063 24.2012 36.6238 24.3004Z" fill="white"/>
</svg>
