<svg width="146" height="140" viewBox="0 0 146 140" fill="none" xmlns="http://www.w3.org/2000/svg">
<g id="Group 346">
<circle id="Ellipse 7" cx="75.9025" cy="69.7592" r="69.7592" fill="#F9F5B8"/>
<path id="shape" fill-rule="evenodd" clip-rule="evenodd" d="M69.6243 46.7858L79.5043 52.591L85.8116 76.1304L89.7548 75.0738L91.8679 82.9601L87.9248 84.0167L90.0379 91.903L54.669 101.38C54.3237 105.827 51.93 109.798 47.3894 111.015L46.7919 111.175C42.3708 112.359 37.6593 110.548 35.2563 106.838C34.6097 105.858 34.0825 104.847 33.7624 103.652C32.2576 98.0362 35.669 92.1274 41.285 90.6226L40.2925 86.9184C38.5001 87.3987 36.6843 88.2694 35.2036 89.4346C33.7228 90.5998 32.5451 91.9399 31.5829 93.6065C30.6207 95.2731 30.049 96.9631 29.7803 98.828C29.5116 100.693 29.6334 102.581 30.1457 104.493C30.4658 105.688 30.8415 106.612 31.3686 107.623L12.7098 112.725L0.200862 65.2379L69.6243 46.7858ZM15.8794 82.318L31.5325 78.1237L31.652 78.0917L28.4823 66.2623L12.7097 70.4885L15.8794 82.318ZM50.0693 103.007C50.1021 102.911 50.1325 102.814 50.1604 102.716C50.5018 101.6 50.5721 100.429 50.2199 99.1143C49.3007 95.684 45.8765 93.6779 42.446 94.5387C42.411 94.5474 42.3759 94.5565 42.3408 94.5659C38.8756 95.4944 36.8638 98.9791 37.7923 102.444C37.8134 102.523 37.836 102.601 37.8602 102.679C38.2011 103.8 38.7657 104.669 39.4945 105.389C39.5439 105.438 39.594 105.487 39.6447 105.534C39.7146 105.601 39.7862 105.667 39.8593 105.732C41.4018 107.097 43.5351 107.693 45.7033 107.112C45.7295 107.105 45.7556 107.098 45.7816 107.091C47.9039 106.494 49.4215 104.931 50.0693 103.007ZM35.4757 77.0672L51.2482 72.8409L48.0786 61.0115L32.306 65.2377L35.4757 77.0672ZM60.4422 91.3806L68.3285 89.2675L59.908 57.8418L52.0217 59.9549L60.4422 91.3806ZM72.2717 88.2109L80.158 86.0978L71.7375 54.6721L63.8512 56.7852L72.2717 88.2109Z" fill="#10225C"/>
<path id="Subtract" fill-rule="evenodd" clip-rule="evenodd" d="M91.0491 137.869C122.293 130.952 145.662 103.085 145.662 69.7592C145.662 31.2323 114.429 6.10352e-05 75.9025 6.10352e-05C65.8658 6.10352e-05 56.3241 2.11969 47.7007 5.93574C52.5773 4.85608 57.6459 4.2868 62.8473 4.2868C101.374 4.2868 132.607 35.519 132.607 74.046C132.607 102.536 115.527 127.037 91.0491 137.869Z" fill="#FAD682"/>
<ellipse id="Ellipse 10" cx="54.2326" cy="34.6568" rx="7.96904" ry="12.6658" transform="rotate(58.46 54.2326 34.6568)" fill="#F0E480"/>
<ellipse id="Ellipse 11" cx="63.9845" cy="120.977" rx="4.84477" ry="8.74037" transform="rotate(105.35 63.9845 120.977)" fill="#F0E480"/>
<g id="Ellipse 12">
<path fill-rule="evenodd" clip-rule="evenodd" d="M121.602 100.63C119.696 105.065 120.144 109.517 122.603 110.573C124.502 107.977 128.543 101.13 129.504 94.5125C127.046 93.4561 123.508 96.1949 121.602 100.63Z" fill="#F0E480"/>
<path d="M122.603 110.573C125.061 111.629 128.599 108.891 130.505 104.456C132.411 100.021 131.963 95.569 129.504 94.5125C128.543 101.13 124.502 107.977 122.603 110.573Z" fill="#F3C766"/>
</g>
<g id="Ellipse 13">
<path fill-rule="evenodd" clip-rule="evenodd" d="M108.01 34.0527C114.228 40.1556 121.039 43.587 124.422 40.1407C121.295 35.2487 113.384 22.7019 102.878 16.7624C99.4947 20.2087 101.793 27.9499 108.01 34.0527Z" fill="#F0E480"/>
<path d="M124.422 40.1407C127.805 36.6943 126.478 27.6752 120.26 21.5724C114.043 15.4695 106.26 13.316 102.878 16.7624C113.384 22.7019 121.295 35.2487 124.422 40.1407Z" fill="#F3C766"/>
</g>
</g>
</svg>
