<svg width="129" height="89" viewBox="0 0 129 89" fill="none" xmlns="http://www.w3.org/2000/svg">
<path id="shape" fill-rule="evenodd" clip-rule="evenodd" d="M27.6156 31.4769V0H128.215V78.6923V88.5288H0V82.6269V80.6596H11.2435C11.0463 79.6759 10.849 78.6923 10.849 77.7086C10.849 76.1348 11.2435 74.3642 11.8353 72.7903C12.427 71.2165 13.4133 69.8394 14.5968 68.659C15.7804 67.4786 17.1611 66.495 18.7392 65.9048C20.3172 65.3146 21.8953 64.9211 23.6705 64.9211V68.2655C18.3447 68.2655 14.2023 72.5936 14.2023 77.7086C14.2023 78.6923 14.3996 79.6759 14.7941 80.6596C15.9776 84.3974 19.5282 87.1517 23.6705 87.1517H24.0651C28.2074 87.1517 31.3635 84.3974 32.547 80.6596H65.094V73.5773H68.8418V66.2982H65.2913V44.6579L57.9928 37.3788H0V31.4769H27.6156ZM43.396 31.4769H53.2587V11.8038H43.396V31.4769ZM63.1215 31.4769H72.9842V11.8038H63.1215V31.4769ZM82.8469 31.4769H92.7096V11.8038H82.8469V31.4769ZM102.572 31.4769H112.435V11.8038H102.572V31.4769ZM3.55035 44.6581H17.9499V55.4782H3.55035V44.6581ZM36.0977 44.6581H21.6981V55.4782H36.0977V44.6581ZM50.6948 44.6581H57.9932V73.5775H50.6948V44.6581ZM47.1444 44.6581H39.8459V73.5775H47.1444V44.6581ZM18.5421 80.6588C18.1476 79.8719 17.7531 78.8882 17.7531 77.7078C17.7531 74.5602 20.3174 72.0027 23.4735 72.0027C26.6296 72.0027 29.1939 74.5602 29.1939 77.7078C29.1939 78.6915 28.9966 79.8719 28.4049 80.6588C27.4186 82.2327 25.446 83.413 23.4735 83.413C21.3037 83.413 19.5284 82.2327 18.5421 80.6588Z" fill="white"/>
</svg>
